HIERARCHY
ROOT ETY1
{
	OFFSET 0.000000 0.000000 0.000000
	CHANNELS 6 Xposition Yposition Zposition Xrotation Yrotation Zrotation
	JOINT N_ALL
	{
		OFFSET 0.000000 0.000000 0.000000
		CHANNELS 3 Xrotation Yrotation Zrotation
		JOINT locator2
		{
			OFFSET 0.000000 0.000000 63.674999
			CHANNELS 3 Xrotation Yrotation Zrotation
			JOINT hara
			{
				OFFSET -0.000000 -0.000000 0.472500
				CHANNELS 3 Xrotation Yrotation Zrotation
				JOINT mune
				{
					OFFSET -0.000005 -0.000000 14.647499
					CHANNELS 3 Xrotation Yrotation Zrotation
					JOINT kubi
					{
						OFFSET -0.565367 0.000000 13.797264
						CHANNELS 3 Xrotation Yrotation Zrotation
						JOINT kao
						{
							OFFSET 0.709599 -0.000000 1.686798
							CHANNELS 3 Xrotation Yrotation Zrotation
							JOINT ago
							{
								OFFSET 1.521274 -0.000001 2.195969
								CHANNELS 3 Xrotation Yrotation Zrotation
								End Site
								{
									OFFSET -0.000000 0.000000 0.365990
								}
							}
							JOINT eyebrow
							{
								OFFSET 2.744157 -0.000001 4.250847
								CHANNELS 3 Xrotation Yrotation Zrotation
								End Site
								{
									OFFSET -0.000000 0.000000 0.365990
								}
							}
							JOINT lip
							{
								OFFSET 1.419795 -0.000001 0.927528
								CHANNELS 3 Xrotation Yrotation Zrotation
								End Site
								{
									OFFSET 0.365992 -0.000000 0.000000
								}
							}
						}
					}
					JOINT L_sako
					{
						OFFSET -0.472501 6.525000 10.465401
						CHANNELS 3 Xrotation Yrotation Zrotation
						JOINT L_kata
						{
							OFFSET -0.000001 5.850000 -0.581734
							CHANNELS 3 Xrotation Yrotation Zrotation
							JOINT L_hiji
							{
								OFFSET -0.483016 15.785759 -0.000015
								CHANNELS 3 Xrotation Yrotation Zrotation
								JOINT L_te
								{
									OFFSET 0.611527 17.032738 -0.013641
									CHANNELS 3 Xrotation Yrotation Zrotation
									JOINT LeftHandIndex1
									{
										OFFSET 2.549848 6.470253 0.791817
										CHANNELS 3 Xrotation Yrotation Zrotation
										JOINT LeftHandIndex2
										{
											OFFSET -0.000001 2.289848 0.000000
											CHANNELS 3 Xrotation Yrotation Zrotation
											JOINT LeftHandIndex3
											{
												OFFSET -0.000001 2.268135 0.000000
												CHANNELS 3 Xrotation Yrotation Zrotation
												End Site
												{
													OFFSET 0.000000 0.365993 0.000000
												}
											}
										}
									}
									JOINT LeftHandMiddle1
									{
										OFFSET 0.874708 6.694298 1.118919
										CHANNELS 3 Xrotation Yrotation Zrotation
										JOINT LeftHandMiddle2
										{
											OFFSET -0.000001 2.683815 0.000000
											CHANNELS 3 Xrotation Yrotation Zrotation
											JOINT LeftHandMiddle3
											{
												OFFSET -0.000001 2.217308 0.000000
												CHANNELS 3 Xrotation Yrotation Zrotation
												End Site
												{
													OFFSET -0.000000 0.365993 0.000000
												}
											}
										}
									}
									JOINT LeftHandPinky1
									{
										OFFSET -2.442180 5.931721 0.497902
										CHANNELS 3 Xrotation Yrotation Zrotation
										JOINT LeftHandPinky2
										{
											OFFSET -0.000000 2.137306 0.000000
											CHANNELS 3 Xrotation Yrotation Zrotation
											JOINT LeftHandPinky3
											{
												OFFSET -0.000000 1.836044 0.000000
												CHANNELS 3 Xrotation Yrotation Zrotation
												End Site
												{
													OFFSET 0.000000 0.365993 0.000000
												}
											}
										}
									}
									JOINT LeftHandRing1
									{
										OFFSET -0.853656 6.338440 0.870934
										CHANNELS 3 Xrotation Yrotation Zrotation
										JOINT LeftHandRing2
										{
											OFFSET -0.000001 2.531284 0.000000
											CHANNELS 3 Xrotation Yrotation Zrotation
											JOINT LeftHandRing3
											{
												OFFSET -0.000001 2.217308 0.000000
												CHANNELS 3 Xrotation Yrotation Zrotation
												End Site
												{
													OFFSET -0.000000 0.365993 0.000000
												}
											}
										}
									}
									JOINT LeftHandThumb1
									{
										OFFSET 2.594638 1.377514 -1.567856
										CHANNELS 3 Xrotation Yrotation Zrotation
										JOINT LeftHandThumb2
										{
											OFFSET 1.626614 2.409187 0.000557
											CHANNELS 3 Xrotation Yrotation Zrotation
											JOINT LeftHandThumb3
											{
												OFFSET 0.823900 2.113201 0.000290
												CHANNELS 3 Xrotation Yrotation Zrotation
												End Site
												{
													OFFSET 0.000000 0.365993 0.000000
												}
											}
										}
									}
								}
							}
						}
					}
					JOINT R_sako
					{
						OFFSET -0.472506 -6.525000 10.465546
						CHANNELS 3 Xrotation Yrotation Zrotation
						JOINT R_kata
						{
							OFFSET 0.000002 -5.850000 -0.581696
							CHANNELS 3 Xrotation Yrotation Zrotation
							JOINT R_hiji
							{
								OFFSET -0.483008 -15.785765 -0.000015
								CHANNELS 3 Xrotation Yrotation Zrotation
								JOINT R_te
								{
									OFFSET 0.611537 -17.032732 -0.013748
									CHANNELS 3 Xrotation Yrotation Zrotation
									JOINT RightHandIndex1
									{
										OFFSET 2.550124 -6.470253 0.790878
										CHANNELS 3 Xrotation Yrotation Zrotation
										JOINT RightHandIndex2
										{
											OFFSET 0.000001 -2.289848 0.000000
											CHANNELS 3 Xrotation Yrotation Zrotation
											JOINT RightHandIndex3
											{
												OFFSET 0.000001 -2.268135 0.000000
												CHANNELS 3 Xrotation Yrotation Zrotation
												End Site
												{
													OFFSET 0.000000 -0.365993 0.000000
												}
											}
										}
									}
									JOINT RightHandMiddle1
									{
										OFFSET 0.875098 -6.694302 1.118561
										CHANNELS 3 Xrotation Yrotation Zrotation
										JOINT RightHandMiddle2
										{
											OFFSET 0.000001 -2.683807 0.000000
											CHANNELS 3 Xrotation Yrotation Zrotation
											JOINT RightHandMiddle3
											{
												OFFSET 0.000001 -2.217308 0.000000
												CHANNELS 3 Xrotation Yrotation Zrotation
												End Site
												{
													OFFSET 0.000000 -0.365993 0.000000
												}
											}
										}
									}
									JOINT RightHandPinky1
									{
										OFFSET -2.442005 -5.931721 0.498680
										CHANNELS 3 Xrotation Yrotation Zrotation
										JOINT RightHandPinky2
										{
											OFFSET 0.000000 -2.137306 0.000000
											CHANNELS 3 Xrotation Yrotation Zrotation
											JOINT RightHandPinky3
											{
												OFFSET 0.000000 -1.836044 0.000000
												CHANNELS 3 Xrotation Yrotation Zrotation
												End Site
												{
													OFFSET 0.000000 -0.365993 0.000000
												}
											}
										}
									}
									JOINT RightHandRing1
									{
										OFFSET -0.853352 -6.338440 0.871170
										CHANNELS 3 Xrotation Yrotation Zrotation
										JOINT RightHandRing2
										{
											OFFSET 0.000001 -2.531284 0.000000
											CHANNELS 3 Xrotation Yrotation Zrotation
											JOINT RightHandRing3
											{
												OFFSET 0.000001 -2.217308 0.000000
												CHANNELS 3 Xrotation Yrotation Zrotation
												End Site
												{
													OFFSET 0.000000 -0.365993 0.000000
												}
											}
										}
									}
									JOINT RightHandThumb1
									{
										OFFSET 2.594098 -1.377514 -1.568817
										CHANNELS 3 Xrotation Yrotation Zrotation
										JOINT RightHandThumb2
										{
											OFFSET 1.626616 -2.409184 0.000000
											CHANNELS 3 Xrotation Yrotation Zrotation
											JOINT RightHandThumb3
											{
												OFFSET 0.823900 -2.113201 0.000000
												CHANNELS 3 Xrotation Yrotation Zrotation
												End Site
												{
													OFFSET 0.000000 -0.365993 0.000000
												}
											}
										}
									}
								}
							}
						}
					}
				}
			}
			JOINT koshi
			{
				OFFSET 0.000000 0.000000 0.000000
				CHANNELS 3 Xrotation Yrotation Zrotation
				JOINT L_momo
				{
					OFFSET 0.000005 5.033075 -8.541428
					CHANNELS 3 Xrotation Yrotation Zrotation
					JOINT L_hiza
					{
						OFFSET 0.236263 0.000015 -23.625002
						CHANNELS 3 Xrotation Yrotation Zrotation
						JOINT L_ashi
						{
							OFFSET -0.944986 0.000017 -25.908707
							CHANNELS 3 Xrotation Yrotation Zrotation
							JOINT L_ashi2
							{
								OFFSET 3.767458 0.000001 -3.875652
								CHANNELS 3 Xrotation Yrotation Zrotation
								End Site
								{
									OFFSET 0.365992 0.000000 0.000000
								}
							}
						}
					}
				}
				JOINT R_momo
				{
					OFFSET 0.000001 -5.033065 -8.541435
					CHANNELS 3 Xrotation Yrotation Zrotation
					JOINT R_hiza
					{
						OFFSET 0.236263 0.000015 -23.624998
						CHANNELS 3 Xrotation Yrotation Zrotation
						JOINT R_ashi
						{
							OFFSET -0.944986 0.000017 -25.908707
							CHANNELS 3 Xrotation Yrotation Zrotation
							JOINT R_ashi2
							{
								OFFSET 3.767459 0.000001 -3.875652
								CHANNELS 3 Xrotation Yrotation Zrotation
								End Site
								{
									OFFSET 0.365992 0.000000 0.000000
								}
							}
						}
					}
				}
			}
		}
	}
}
MOTION
Frames: 4
Frame Time: 0.041667
0.000000 0.000000 0.000000 -0.000000 0.000000 -89.999982 -0.000000 0.000000 -0.000000 -0.000000 0.000003 0.000000 0.273180 0.393731 -3.795362 -0.027282 -0.258518 1.712016 1.218896 -10.965721 0.533367 0.142813 -11.130292 1.159357 0.000001 4.996861 0.000002 0.000000 0.999163 -0.000016 -0.000003 -0.955439 0.000002 -19.625821 15.041234 -2.271167 -55.073728 -0.828861 -6.945714 4.041046 -24.873915 -58.275720 -9.252233 -3.148853 -3.420381 -74.128972 11.591329 0.286290 -96.094068 0.021921 -0.019692 -96.095052 0.021906 -0.019691 -63.264272 0.010878 -0.017694 -95.047109 0.021525 -0.019747 -95.048079 0.021526 -0.019746 -84.442025 -10.119026 -0.019131 -89.056084 0.019459 -0.019798 -102.105830 0.023958 -0.019364 -75.500884 0.014830 -0.019184 -94.513856 0.021342 -0.019759 -94.514880 0.021341 -0.019761 -19.245460 1.321132 4.679176 -0.015055 -0.006943 49.503944 -0.017422 -0.010389 61.619603 19.438761 15.260096 2.260898 54.901897 2.375197 6.417323 -8.010835 -13.110522 62.553242 14.438281 -6.500426 4.033689 74.134873 11.579087 -0.305880 96.092818 0.000026 0.000043 96.095031 0.000046 0.000042 63.263814 0.000043 0.000027 95.046419 0.000066 0.000021 95.048093 0.000064 0.000022 84.440672 -10.136493 -0.000469 89.055688 0.000061 0.000042 102.105843 0.000055 0.000040 75.500542 0.000052 0.000026 94.512538 0.000063 0.000024 94.514880 0.000064 0.000022 19.244761 1.319459 -4.685695 0.000031 -0.000014 -49.511836 0.000030 -0.000028 -61.623381 0.331738 0.648331 -5.508428 4.949488 -6.248903 -0.068481 0.001742 9.111518 -0.019600 -5.237984 -3.518739 5.862804 -0.019427 0.070322 0.000000 -6.091053 -7.498918 0.087771 -0.003153 8.713713 0.027951 5.821982 -1.829234 -0.554864 -0.000000 -0.000037 -0.000001 
0.000000 0.000000 0.000000 -0.000000 0.000000 -89.999982 -0.000000 0.000000 -0.000000 -0.000000 0.000003 0.000000 0.273180 0.393731 -3.795362 -0.027282 -0.258518 1.712016 1.218896 -10.965721 0.533367 0.142813 -11.130292 1.159357 0.000001 4.996861 0.000002 0.000000 0.999163 -0.000016 -0.000003 -0.955439 0.000002 -19.625821 15.041234 -2.271167 -55.073728 -0.828861 -6.945714 4.041046 -24.873915 -58.275720 -9.252233 -3.148853 -3.420381 -74.128972 11.591329 0.286290 -96.094068 0.021921 -0.019692 -96.095052 0.021906 -0.019691 -63.264272 0.010878 -0.017694 -95.047109 0.021525 -0.019747 -95.048079 0.021526 -0.019746 -84.442025 -10.119026 -0.019131 -89.056084 0.019459 -0.019798 -102.105830 0.023958 -0.019364 -75.500884 0.014830 -0.019184 -94.513856 0.021342 -0.019759 -94.514880 0.021341 -0.019761 -19.245460 1.321132 4.679176 -0.015055 -0.006943 49.503944 -0.017422 -0.010389 61.619603 19.438761 15.260096 2.260898 54.901897 2.375197 6.417323 -8.010835 -13.110522 62.553242 14.438281 -6.500426 4.033689 74.134873 11.579087 -0.305880 96.092818 0.000026 0.000043 96.095031 0.000046 0.000042 63.263814 0.000043 0.000027 95.046419 0.000066 0.000021 95.048093 0.000064 0.000022 84.440672 -10.136493 -0.000469 89.055688 0.000061 0.000042 102.105843 0.000055 0.000040 75.500542 0.000052 0.000026 94.512538 0.000063 0.000024 94.514880 0.000064 0.000022 19.244761 1.319459 -4.685695 0.000031 -0.000014 -49.511836 0.000030 -0.000028 -61.623381 0.331738 0.648331 -5.508428 4.949488 -6.248903 -0.068481 0.001742 9.111518 -0.019600 -5.237984 -3.518739 5.862804 -0.019427 0.070322 0.000000 -6.091053 -7.498918 0.087771 -0.003153 8.713713 0.027951 5.821982 -1.829234 -0.554864 -0.000000 -0.000037 -0.000001 
0.000000 0.000000 0.000000 -0.000000 0.000000 -89.999982 -0.000000 0.000000 -0.000000 -0.000000 0.000003 0.000000 0.314829 1.766384 -3.797079 -0.037740 0.691771 1.701694 1.212820 -11.254490 0.527761 0.151376 -11.450898 1.163518 0.000002 4.976921 0.000002 0.000000 1.026605 -0.000016 -0.000003 -1.034453 0.000002 -19.625825 15.041236 -2.271168 -54.581046 -1.219905 -7.799190 4.041049 -24.873913 -58.309134 -9.252379 -3.153142 -3.421094 -74.128972 11.591327 0.286290 -96.094068 0.021922 -0.019692 -96.095052 0.021907 -0.019690 -63.264272 0.010880 -0.017692 -95.047109 0.021527 -0.019745 -95.048079 0.021530 -0.019749 -84.442025 -10.119029 -0.019130 -89.056084 0.019458 -0.019799 -102.105830 0.023956 -0.019362 -75.500884 0.014829 -0.019183 -94.513856 0.021341 -0.019765 -94.514880 0.021346 -0.019763 -19.245463 1.321133 4.679173 -0.015056 -0.006944 49.503944 -0.017422 -0.010389 61.619597 19.438758 15.260094 2.260898 53.884028 2.011769 7.317673 -8.012381 -13.110520 62.589736 14.438279 -6.500426 4.033685 74.134873 11.579087 -0.305877 96.092818 0.000028 0.000041 96.095031 0.000047 0.000040 63.263814 0.000038 0.000025 95.046419 0.000064 0.000023 95.048093 0.000064 0.000023 84.440672 -10.136495 -0.000469 89.055688 0.000060 0.000043 102.105843 0.000054 0.000040 75.500542 0.000047 0.000024 94.512538 0.000066 0.000019 94.514880 0.000066 0.000022 19.244760 1.319459 -4.685697 0.000033 -0.000015 -49.511836 0.000030 -0.000028 -61.623387 0.375034 1.552673 -5.510104 5.321493 -8.066952 -0.084265 0.004726 10.793090 -0.193750 -5.132742 -4.139195 5.836393 -0.567729 -0.293228 -0.085883 -5.510288 -13.491971 0.143219 -0.020283 18.326226 -2.441005 5.315372 -2.874285 -0.513172 -0.350108 -1.512911 -0.211550 
0.000000 0.000000 0.000000 -0.000000 0.000000 -89.999982 -0.000000 0.000000 -0.000000 -0.000000 0.000003 0.000000 0.356305 3.133545 -3.800964 -0.055372 1.642126 1.691837 1.206699 -11.544750 0.522160 0.160850 -11.779872 1.167760 0.000001 4.957040 0.000002 0.000000 1.053361 -0.000016 -0.000004 -1.113403 0.000002 -19.625819 15.041236 -2.271168 -53.952856 -1.877718 -8.599101 4.042885 -24.872308 -58.417706 -9.258147 -3.157487 -3.421835 -74.128979 11.591325 0.286291 -96.094068 0.021924 -0.019689 -96.095052 0.021908 -0.019692 -63.264272 0.010881 -0.017691 -95.047109 0.021527 -0.019747 -95.048079 0.021527 -0.019748 -84.442025 -10.119025 -0.019129 -89.056084 0.019457 -0.019801 -102.105830 0.023955 -0.019364 -75.500884 0.014827 -0.019182 -94.513856 0.021343 -0.019761 -94.514880 0.021348 -0.019764 -19.245460 1.321131 4.679173 -0.015055 -0.006943 49.503937 -0.017422 -0.010390 61.619597 19.438758 15.260096 2.260898 52.779658 1.427296 8.183296 -8.012382 -13.110522 62.695276 14.438299 -6.500038 4.034312 74.134873 11.579086 -0.305878 96.092818 0.000026 0.000046 96.095031 0.000047 0.000039 63.263814 0.000041 0.000026 95.046419 0.000062 0.000025 95.048093 0.000063 0.000021 84.440672 -10.136493 -0.000469 89.055688 0.000060 0.000048 102.105843 0.000053 0.000038 75.500542 0.000051 0.000026 94.512538 0.000063 0.000021 94.514880 0.000064 0.000022 19.244760 1.319457 -4.685694 0.000031 -0.000015 -49.511833 0.000030 -0.000030 -61.623387 0.412376 2.451594 -5.513136 5.703232 -9.885004 -0.076024 0.041137 12.474464 -0.374720 -5.027000 -4.759643 5.811834 -1.190595 -0.564900 -0.160803 -4.961573 -19.496213 0.319495 -0.044852 27.938395 -4.903302 4.848062 -2.272439 -0.599973 -0.744911 -3.532875 -0.599206 
